<svg width="101" height="100" viewBox="0 0 101 100" fill="none" xmlns="http://www.w3.org/2000/svg">
<g clip-path="url(#clip0_216_673)">
<rect opacity="0.0229128" x="0.5" y="0.5" width="99" height="99" stroke="#2B2B2B"/>
<g clip-path="url(#clip1_216_673)">
<path fill-rule="evenodd" clip-rule="evenodd" d="M33.4941 32.3313C41.8558 32.3376 48.6281 39.077 48.6217 47.3849C48.6154 55.6928 41.8324 62.4216 33.4707 62.4152C25.109 62.4089 18.3366 55.6695 18.343 47.3616C18.3494 39.0537 25.1324 32.325 33.4941 32.3313Z" fill="#F9C900"/>
<path fill-rule="evenodd" clip-rule="evenodd" d="M29.8843 67.4352C29.8843 67.617 29.8609 67.7988 29.8119 67.9827L27.2992 77.2694C26.9949 78.3941 25.8311 79.06 24.6992 78.7577C23.5651 78.4554 22.8949 77.299 23.1992 76.1744L25.7119 66.8877C26.0162 65.7631 27.18 65.0972 28.3119 65.3974C29.2609 65.651 29.8843 66.5051 29.8843 67.4352Z" fill="#F9C900"/>
<path fill-rule="evenodd" clip-rule="evenodd" d="M19.3677 63.6227C19.3677 64.1914 19.1379 64.7579 18.6826 65.1722L11.5655 71.6896C10.7038 72.4781 9.36129 72.4232 8.56767 71.567C7.77193 70.7108 7.82725 69.3769 8.68895 68.5863L15.806 62.0711C16.6698 61.2825 18.0124 61.3354 18.806 62.1937C19.1826 62.5974 19.3677 63.1111 19.3677 63.6227Z" fill="#F9C900"/>
<mask id="mask0_216_673" style="mask-type:luminance" maskUnits="userSpaceOnUse" x="0" y="51" width="14" height="7">
<path fill-rule="evenodd" clip-rule="evenodd" d="M0 51.2717V57.897H13.616V51.2717L0 51.2717L0 51.2717Z" fill="white"/>
</mask>
<g mask="url(#mask0_216_673)">
<path fill-rule="evenodd" clip-rule="evenodd" d="M13.616 53.3837C13.616 54.3223 12.9798 55.1763 12.0245 55.4215L2.65426 57.8294C1.52022 58.1211 0.360642 57.4425 0.0670254 56.3158C-0.224464 55.189 0.456387 54.0369 1.59256 53.7452L10.9628 51.3395C12.0968 51.0477 13.2543 51.7242 13.5479 52.8531C13.5947 53.0306 13.616 53.2082 13.616 53.3837Z" fill="#F9C900"/>
</g>
<path fill-rule="evenodd" clip-rule="evenodd" d="M13.9139 41.5692C13.9139 41.7425 13.8926 41.918 13.8458 42.0955C13.5543 43.2223 12.3968 43.9009 11.2628 43.6112L1.88832 41.214C0.754282 40.9244 0.071303 39.7723 0.362792 38.6455C0.654282 37.5188 1.81173 36.8402 2.9479 37.1298L12.3202 39.5271C13.2777 39.7723 13.9139 40.6284 13.9139 41.5692Z" fill="#F9C900"/>
<path fill-rule="evenodd" clip-rule="evenodd" d="M19.3153 31.3003C19.3153 31.8288 19.1174 32.3573 18.7174 32.7653C17.9025 33.6024 16.5578 33.6236 15.7153 32.8139L8.76421 26.1232C7.92166 25.3135 7.90038 23.9796 8.71527 23.1425C9.53017 22.3054 10.8748 22.2842 11.7174 23.0939L18.6685 29.7825C19.1004 30.1968 19.3153 30.7486 19.3153 31.3003Z" fill="#F9C900"/>
<path fill-rule="evenodd" clip-rule="evenodd" d="M29.1759 25.4368C29.1759 26.3796 28.5334 27.2379 27.5717 27.4789C26.4355 27.7642 25.2802 27.0793 24.9951 25.9483L22.6291 16.6236C22.344 15.4926 23.0334 14.349 24.1696 14.0636C25.3057 13.7803 26.4611 14.4653 26.7462 15.5941L29.1121 24.9188C29.1547 25.0922 29.1759 25.2655 29.1759 25.4368Z" fill="#F9C900"/>
<path fill-rule="evenodd" clip-rule="evenodd" d="M43.3854 16.7993C43.3854 16.9769 43.362 17.1566 43.3152 17.3363L40.8556 26.6357C40.5577 27.7624 39.396 28.4346 38.262 28.1387C37.13 27.8427 36.4513 26.6885 36.7492 25.5639L39.2088 16.2624C39.5066 15.1378 40.6683 14.4634 41.8024 14.7594C42.7556 15.0088 43.3854 15.8629 43.3854 16.7993Z" fill="#F9C900"/>
<path fill-rule="evenodd" clip-rule="evenodd" d="M58.7764 24.829C58.7764 25.4167 58.5296 26.0023 58.0466 26.4188L50.7445 32.7311C49.8615 33.4942 48.519 33.4012 47.7509 32.5239C46.9807 31.6445 47.0743 30.3127 47.9594 29.5474L55.2615 23.2372C56.1445 22.472 57.4849 22.565 58.2552 23.4444C58.6062 23.8439 58.7764 24.3386 58.7764 24.829Z" fill="#F9C900"/>
<path fill-rule="evenodd" clip-rule="evenodd" d="M66.302 38.903C66.302 39.8289 65.6828 40.6766 64.7403 40.9345L55.4084 43.4776C54.2764 43.7863 53.1084 43.1267 52.7998 42.0021C52.4892 40.8774 53.153 39.719 54.285 39.4103L63.6169 36.8672C64.7488 36.5586 65.9147 37.2181 66.2254 38.3428C66.2764 38.5288 66.302 38.7169 66.302 38.903Z" fill="#F9C900"/>
<path fill-rule="evenodd" clip-rule="evenodd" d="M66.1415 55.3442C66.1415 55.5175 66.1202 55.693 66.0734 55.8706C65.7819 56.9973 64.6245 57.6759 63.4904 57.3863L54.116 54.989C52.9819 54.6994 52.2968 53.5494 52.5904 52.4206C52.8819 51.2938 54.0394 50.6152 55.1755 50.9048L64.5479 53.3021C65.5053 53.5473 66.1415 54.4035 66.1415 55.3442Z" fill="#F9C900"/>
<path fill-rule="evenodd" clip-rule="evenodd" d="M58.2155 69.8243C58.2155 70.3718 58.0027 70.9172 57.5772 71.3294C56.7389 72.1454 55.3942 72.1306 54.5751 71.2977L47.8091 64.4209C46.99 63.588 47.0049 62.2541 47.8432 61.4403C48.6815 60.6243 50.0261 60.6391 50.8453 61.472L57.6113 68.3487C58.0155 68.7588 58.2155 69.2915 58.2155 69.8243Z" fill="#F9C900"/>
<path fill-rule="evenodd" clip-rule="evenodd" d="M43.6032 77.6011C43.6032 78.5313 42.9798 79.3811 42.033 79.6348C40.9011 79.9371 39.7351 79.2712 39.4309 78.1465L36.9117 68.862C36.6075 67.7373 37.2777 66.581 38.4096 66.2766C39.5415 65.9743 40.7075 66.6402 41.0117 67.7648L43.5287 77.0494C43.5798 77.2333 43.6032 77.4193 43.6032 77.6011Z" fill="#F9C900"/>
<mask id="mask1_216_673" style="mask-type:luminance" maskUnits="userSpaceOnUse" x="18" y="33" width="82" height="48">
<path fill-rule="evenodd" clip-rule="evenodd" d="M18.1161 80.2364H99.1778V33.9772H18.1161V80.2364Z" fill="white"/>
</mask>
<g mask="url(#mask1_216_673)">
<path fill-rule="evenodd" clip-rule="evenodd" d="M30.3927 55.5989C23.6246 55.5989 18.1161 61.1248 18.1161 67.9191C18.1161 74.7092 23.6246 80.2373 30.3927 80.2373H83.7693C92.2672 80.2373 99.1778 73.2992 99.1778 64.7714C99.1778 56.2437 92.2672 49.3056 83.7693 49.3056C82.1884 49.3056 80.6161 49.5509 79.1012 50.0307L78.114 50.3457L77.765 49.3648C74.5033 40.1606 65.7842 33.9772 56.0714 33.9772C44.1969 33.9772 34.3416 42.9066 33.1459 54.747L33.0352 55.8441L31.9459 55.7089C31.3416 55.6327 30.848 55.5989 30.3927 55.5989Z" fill="#D6E3F2"/>
</g>
</g>
<path fill-rule="evenodd" clip-rule="evenodd" d="M35.1786 84.477C35.1786 84.477 32.3904 92.2919 33.1225 95.2891C33.7275 97.769 36.2066 99.3036 38.6528 98.712C41.1079 98.1182 42.5962 95.6209 41.9912 93.1433C41.2591 90.1439 35.1786 84.477 35.1786 84.477Z" fill="#38A1E8"/>
<path fill-rule="evenodd" clip-rule="evenodd" d="M52.7694 84.243C52.7694 84.243 49.9812 92.0579 50.7133 95.0573C51.3183 97.535 53.7974 99.0696 56.2437 98.478C58.6987 97.8842 60.187 95.3869 59.582 92.9093C58.8499 89.9099 52.7694 84.243 52.7694 84.243Z" fill="#38A1E8"/>
<path fill-rule="evenodd" clip-rule="evenodd" d="M71.0482 84C71.0482 84 68.26 91.815 68.9921 94.8121C69.5971 97.292 72.0762 98.8266 74.5225 98.235C76.9775 97.6412 78.4658 95.1439 77.8587 92.6663C77.1265 89.6669 71.0482 84 71.0482 84Z" fill="#38A1E8"/>
</g>
<defs>
<clipPath id="clip0_216_673">
<rect width="101" height="100" fill="white"/>
</clipPath>
<clipPath id="clip1_216_673">
<rect width="101" height="67" fill="white" transform="translate(0 14)"/>
</clipPath>
</defs>
</svg>
