<svg width="100" height="100" viewBox="0 0 100 100" fill="none" xmlns="http://www.w3.org/2000/svg">
<g clip-path="url(#clip0_216_736)">
<rect opacity="0.0229128" x="0.5" y="0.5" width="98.0099" height="99" stroke="#2B2B2B"/>
<g clip-path="url(#clip1_216_736)">
<path fill-rule="evenodd" clip-rule="evenodd" d="M30.2736 33.5172C37.8313 33.5229 43.9524 39.5952 43.9467 47.081C43.9409 54.5667 37.8101 60.6295 30.2524 60.6238C22.6947 60.6181 16.5736 54.5457 16.5793 47.06C16.5851 39.5743 22.7159 33.5114 30.2736 33.5172Z" fill="#F9C900"/>
<path fill-rule="evenodd" clip-rule="evenodd" d="M27.0107 65.147C27.0107 65.3108 26.9895 65.4746 26.9453 65.6404L24.6741 74.008C24.3991 75.0213 23.3472 75.6213 22.3241 75.3489C21.2991 75.0765 20.6934 74.0346 20.9684 73.0213L23.2395 64.6537C23.5145 63.6404 24.5664 63.0404 25.5895 63.3108C26.4472 63.5394 27.0107 64.3089 27.0107 65.147Z" fill="#F9C900"/>
<path fill-rule="evenodd" clip-rule="evenodd" d="M17.5055 61.7118C17.5055 62.2242 17.2978 62.7346 16.8862 63.108L10.4535 68.9803C9.67469 69.6908 8.46122 69.6413 7.74392 68.8699C7.02469 68.0984 7.07469 66.8965 7.85353 66.1842L14.2862 60.3137C15.067 59.6032 16.2805 59.6508 16.9978 60.4242C17.3381 60.788 17.5055 61.2508 17.5055 61.7118Z" fill="#F9C900"/>
<mask id="mask0_216_736" style="mask-type:luminance" maskUnits="userSpaceOnUse" x="0" y="50" width="13" height="7">
<path fill-rule="evenodd" clip-rule="evenodd" d="M0 50.5831V56.5528H12.3067V50.5831L0 50.5831L0 50.5831Z" fill="white"/>
</mask>
<g mask="url(#mask0_216_736)">
<path fill-rule="evenodd" clip-rule="evenodd" d="M12.3068 52.4861C12.3068 53.3318 11.7318 54.1014 10.8684 54.3223L2.39913 56.4918C1.37413 56.7547 0.326052 56.1433 0.0606675 55.128C-0.202794 54.1128 0.412591 53.0747 1.43951 52.8118L9.90874 50.6442C10.9337 50.3814 11.9799 50.9909 12.2453 52.008C12.2876 52.168 12.3068 52.328 12.3068 52.4861Z" fill="#F9C900"/>
</g>
<path fill-rule="evenodd" clip-rule="evenodd" d="M12.576 41.8407C12.576 41.9969 12.5567 42.155 12.5144 42.315C12.251 43.3303 11.2048 43.9417 10.1798 43.6807L1.70673 41.5207C0.681729 41.2598 0.0644211 40.2217 0.327883 39.2064C0.591344 38.1912 1.6375 37.5798 2.66442 37.8407L11.1356 40.0007C12.001 40.2217 12.576 40.9931 12.576 41.8407Z" fill="#F9C900"/>
<path fill-rule="evenodd" clip-rule="evenodd" d="M17.4581 32.5882C17.4581 33.0644 17.2792 33.5406 16.9177 33.9082C16.1812 34.6625 14.9658 34.6815 14.2042 33.952L7.92155 27.9234C7.16001 27.1939 7.14078 25.992 7.87732 25.2377C8.61386 24.4834 9.82924 24.4644 10.5908 25.1939L16.8735 31.2206C17.2639 31.5939 17.4581 32.091 17.4581 32.5882Z" fill="#F9C900"/>
<path fill-rule="evenodd" clip-rule="evenodd" d="M26.3705 27.3051C26.3705 28.1547 25.7897 28.928 24.9205 29.1451C23.8935 29.4023 22.8493 28.7851 22.5916 27.7661L20.4532 19.3642C20.1955 18.3451 20.8185 17.3147 21.8455 17.0575C22.8724 16.8023 23.9166 17.4194 24.1743 18.4366L26.3128 26.8385C26.3512 26.9947 26.3705 27.1509 26.3705 27.3051Z" fill="#F9C900"/>
<path fill-rule="evenodd" clip-rule="evenodd" d="M39.2136 19.5223C39.2136 19.6823 39.1924 19.8442 39.1501 20.0061L36.927 28.3851C36.6578 29.4004 35.6078 30.0061 34.5828 29.7394C33.5597 29.4727 32.9462 28.4327 33.2155 27.4194L35.4386 19.0385C35.7078 18.0251 36.7578 17.4175 37.7828 17.6842C38.6443 17.9089 39.2136 18.6785 39.2136 19.5223Z" fill="#F9C900"/>
<path fill-rule="evenodd" clip-rule="evenodd" d="M53.1249 26.7573C53.1249 27.2868 52.9018 27.8144 52.4653 28.1897L45.8653 33.8773C45.0672 34.5649 43.8537 34.4811 43.1595 33.6906C42.4633 32.8983 42.5479 31.6983 43.3479 31.0087L49.9479 25.323C50.746 24.6335 51.9576 24.7173 52.6537 25.5097C52.971 25.8697 53.1249 26.3154 53.1249 26.7573Z" fill="#F9C900"/>
<path fill-rule="evenodd" clip-rule="evenodd" d="M59.9268 39.4385C59.9268 40.2728 59.3671 41.0366 58.5152 41.269L50.0806 43.5604C49.0575 43.8385 48.0018 43.2442 47.7229 42.2309C47.4421 41.2175 48.0421 40.1737 49.0652 39.8956L57.4998 37.6042C58.5229 37.3261 59.5768 37.9204 59.8575 38.9337C59.9037 39.1014 59.9268 39.2709 59.9268 39.4385Z" fill="#F9C900"/>
<path fill-rule="evenodd" clip-rule="evenodd" d="M59.7817 54.2526C59.7817 54.4088 59.7624 54.5669 59.7201 54.7269C59.4567 55.7421 58.4105 56.3535 57.3855 56.0926L48.9124 53.9326C47.8874 53.6716 47.2682 52.6355 47.5336 51.6183C47.7971 50.6031 48.8432 49.9916 49.8701 50.2526L58.3413 52.4126C59.2067 52.6335 59.7817 53.405 59.7817 54.2526Z" fill="#F9C900"/>
<path fill-rule="evenodd" clip-rule="evenodd" d="M52.6178 67.2996C52.6178 67.793 52.4255 68.2844 52.0409 68.6558C51.2832 69.3911 50.0678 69.3777 49.3274 68.6273L43.212 62.4311C42.4717 61.6806 42.4851 60.4787 43.2428 59.7454C44.0005 59.0101 45.2159 59.0235 45.9563 59.7739L52.0717 65.9701C52.437 66.3396 52.6178 66.8196 52.6178 67.2996Z" fill="#F9C900"/>
<path fill-rule="evenodd" clip-rule="evenodd" d="M39.4105 74.3069C39.4105 75.145 38.847 75.9107 37.9913 76.1393C36.9682 76.4116 35.9143 75.8116 35.6393 74.7983L33.3624 66.4326C33.0874 65.4193 33.6932 64.3773 34.7163 64.1031C35.7393 63.8307 36.7932 64.4307 37.0682 65.444L39.3432 73.8097C39.3893 73.9754 39.4105 74.1431 39.4105 74.3069Z" fill="#F9C900"/>
<mask id="mask1_216_736" style="mask-type:luminance" maskUnits="userSpaceOnUse" x="33" y="31" width="67" height="39">
<path fill-rule="evenodd" clip-rule="evenodd" d="M99.3444 69.7371V31.8781H33.0242V69.7371H99.3444Z" fill="white"/>
</mask>
<g mask="url(#mask1_216_736)">
<path fill-rule="evenodd" clip-rule="evenodd" d="M89.3011 49.5733C94.8396 49.5733 99.3453 54.0952 99.3453 59.6571C99.3453 65.2152 94.8396 69.7371 89.3011 69.7371H45.6299C38.6799 69.7371 33.0242 64.059 33.0242 57.08C33.0242 50.1009 38.6799 44.4228 45.6299 44.4228C46.9242 44.4228 48.2107 44.6228 49.4492 45.0171L50.2588 45.2742L50.5434 44.4723C53.2126 36.939 60.3453 31.8781 68.2915 31.8781C78.0069 31.8781 86.0703 39.1847 87.0492 48.8761L87.1396 49.7733L88.0319 49.6628C88.5242 49.6019 88.928 49.5733 89.3011 49.5733Z" fill="#BAC6D1"/>
</g>
<mask id="mask2_216_736" style="mask-type:luminance" maskUnits="userSpaceOnUse" x="6" y="40" width="74" height="43">
<path fill-rule="evenodd" clip-rule="evenodd" d="M6.62866 82.2621H79.896V40.581H6.62866V82.2621Z" fill="white"/>
</mask>
<g mask="url(#mask2_216_736)">
<path fill-rule="evenodd" clip-rule="evenodd" d="M17.7248 60.0629C11.6075 60.0629 6.62866 65.0419 6.62866 71.1639C6.62866 77.2819 11.6075 82.2629 17.7248 82.2629H65.969C73.6498 82.2629 79.896 76.0115 79.896 68.3277C79.896 60.6439 73.6498 54.3924 65.969 54.3924C64.5402 54.3924 63.119 54.6134 61.7498 55.0458L60.8575 55.3296L60.5421 54.4458C57.594 46.1524 49.7133 40.581 40.9344 40.581C30.2017 40.581 21.294 48.6267 20.2133 59.2953L20.1133 60.2839L19.1287 60.1619C18.5825 60.0934 18.1364 60.0629 17.7248 60.0629Z" fill="#D6E3F2"/>
</g>
</g>
</g>
<defs>
<clipPath id="clip0_216_736">
<rect width="100" height="100" fill="white"/>
</clipPath>
<clipPath id="clip1_216_736">
<rect width="100" height="66" fill="white" transform="translate(0 17)"/>
</clipPath>
</defs>
</svg>
