<svg width="40" height="40" viewBox="0 0 40 40" fill="none" xmlns="http://www.w3.org/2000/svg">
<path d="M10.2486 23.3333C10.6868 23.3333 11.1071 23.5089 11.4169 23.8215C11.7268 24.134 11.9008 24.558 11.9008 25C11.9008 25.442 11.7268 25.8659 11.4169 26.1785C11.1071 26.4911 10.6868 26.6667 10.2486 26.6667C9.16377 26.6667 8.08953 26.4511 7.08725 26.0323C6.08497 25.6135 5.17427 24.9997 4.40716 24.2259C2.85791 22.6631 1.98755 20.5435 1.98755 18.3333C1.98755 16.1232 2.85791 14.0036 4.40716 12.4408C5.95642 10.878 8.05765 9.99998 10.2486 9.99998C11.9008 6.08331 15.7009 3.33331 20.1619 3.33331C25.829 3.33331 30.4717 7.76665 30.9013 13.3833L31.7274 13.3333C33.4802 13.3333 35.1612 14.0357 36.4006 15.2859C37.64 16.5362 38.3363 18.2319 38.3363 20C38.3363 21.7681 37.64 23.4638 36.4006 24.714C35.1612 25.9643 33.4802 26.6667 31.7274 26.6667H30.0752C29.637 26.6667 29.2168 26.4911 28.9069 26.1785C28.5971 25.8659 28.423 25.442 28.423 25C28.423 24.558 28.5971 24.134 28.9069 23.8215C29.2168 23.5089 29.637 23.3333 30.0752 23.3333H31.7274C32.6038 23.3333 33.4443 22.9821 34.064 22.357C34.6837 21.7319 35.0319 20.884 35.0319 20C35.0319 19.1159 34.6837 18.2681 34.064 17.643C33.4443 17.0178 32.6038 16.6666 31.7274 16.6666H28.423V15C28.423 12.7898 27.5526 10.6702 26.0034 9.10742C24.4541 7.54462 22.3529 6.66665 20.1619 6.66665C16.0314 6.66665 12.6443 9.69998 12 13.65C11.4547 13.45 10.8599 13.3333 10.2486 13.3333C8.93404 13.3333 7.6733 13.8601 6.74375 14.7978C5.8142 15.7355 5.29198 17.0072 5.29198 18.3333C5.29198 19.6594 5.8142 20.9312 6.74375 21.8689C7.6733 22.8065 8.93404 23.3333 10.2486 23.3333ZM16.8575 30C17.7339 30 18.5744 30.3512 19.1941 30.9763C19.8138 31.6014 20.1619 32.4493 20.1619 33.3333C20.1619 34.2174 19.8138 35.0652 19.1941 35.6903C18.5744 36.3155 17.7339 36.6667 16.8575 36.6667C15.9811 36.6667 15.1406 36.3155 14.5209 35.6903C13.9012 35.0652 13.5531 34.2174 13.5531 33.3333C13.5531 32.4493 13.9012 31.6014 14.5209 30.9763C15.1406 30.3512 15.9811 30 16.8575 30ZM24.2925 26.6667C24.9498 26.6667 25.5801 26.93 26.0449 27.3989C26.5097 27.8677 26.7708 28.5036 26.7708 29.1667C26.7708 29.8297 26.5097 30.4656 26.0449 30.9344C25.5801 31.4033 24.9498 31.6667 24.2925 31.6667C23.6352 31.6667 23.0048 31.4033 22.54 30.9344C22.0752 30.4656 21.8141 29.8297 21.8141 29.1667C21.8141 28.5036 22.0752 27.8677 22.54 27.3989C23.0048 26.93 23.6352 26.6667 24.2925 26.6667ZM17.6836 20C18.3409 20 18.9713 20.2634 19.436 20.7322C19.9008 21.2011 20.1619 21.8369 20.1619 22.5C20.1619 23.163 19.9008 23.7989 19.436 24.2678C18.9713 24.7366 18.3409 25 17.6836 25C17.0263 25 16.3959 24.7366 15.9312 24.2678C15.4664 23.7989 15.2053 23.163 15.2053 22.5C15.2053 21.8369 15.4664 21.2011 15.9312 20.7322C16.3959 20.2634 17.0263 20 17.6836 20Z" fill="#60B4E2"/>
</svg>
